# WaveFront *.obj file (generated by CINEMA 4D)

mtllib ./左边.mtl

v -134.40805053710938 -28.6180248260498 -106.29269409179688
v -134.40805053710938 -28.08942985534668 -106.29269409179688
v -113.38604736328125 -28.6180248260498 -106.29269409179688
v -113.38604736328125 -28.08942985534668 -106.29269409179688
v -113.38604736328125 -28.6180248260498 -127.31468963623047
v -113.38604736328125 -28.08942985534668 -127.31468963623047
v -134.40805053710938 -28.6180248260498 -127.31468963623047
v -134.40805053710938 -28.08942985534668 -127.31468963623047
# 8 vertices

vn 0 0 1
vn 1 0 0
vn 0 0 -1
vn -1 0 0
vn 0 1 0
vn 0 -1 0
# 6 normals

vt 0 0 0
vt 0 1 0
vt 1 1 0
vt 1 0 0
# 4 texture coordinates

o 立方体.2
usemtl default
f 3/4/1 4/3/1 2/2/1 1/1/1
f 5/4/2 6/3/2 4/2/2 3/1/2
f 7/4/3 8/3/3 6/2/3 5/1/3
f 1/4/4 2/3/4 8/2/4 7/1/4
f 4/4/5 6/3/5 8/2/5 2/1/5
f 5/4/6 3/3/6 1/2/6 7/1/6

v -134.48313903808594 -28.96055221557617 -99.07528686523438
v -134.48313903808594 -28.33472442626953 -99.07528686523438
v -106.19539642333984 -28.96055221557617 -99.07528686523438
v -106.19539642333984 -28.33472442626953 -99.07528686523438
v -106.19539642333984 -28.96055221557617 -127.363037109375
v -106.19539642333984 -28.33472442626953 -127.363037109375
v -134.48313903808594 -28.96055221557617 -127.363037109375
v -134.48313903808594 -28.33472442626953 -127.363037109375
# 8 vertices

# 0 normal

# 0 texture coordinate

o 立方体.1
usemtl default
f 11/4/1 12/3/1 10/2/1 9/1/1
f 13/4/2 14/3/2 12/2/2 11/1/2
f 15/4/3 16/3/3 14/2/3 13/1/3
f 9/4/4 10/3/4 16/2/4 15/1/4
f 12/4/5 14/3/5 16/2/5 10/1/5
f 13/4/6 11/3/6 9/2/6 15/1/6

v -134.48313903808594 -38.96055221557617 -99.07528686523438
v -134.48313903808594 -38.33472442626953 -99.07528686523438
v -106.19539642333984 -38.96055221557617 -99.07528686523438
v -106.19539642333984 -38.33472442626953 -99.07528686523438
v -106.19539642333984 -38.96055221557617 -127.363037109375
v -106.19539642333984 -38.33472442626953 -127.363037109375
v -134.48313903808594 -38.96055221557617 -127.363037109375
v -134.48313903808594 -38.33472442626953 -127.363037109375
# 8 vertices

# 0 normal

# 0 texture coordinate

o 立方体
usemtl default
f 19/4/1 20/3/1 18/2/1 17/1/1
f 21/4/2 22/3/2 20/2/2 19/1/2
f 23/4/3 24/3/3 22/2/3 21/1/3
f 17/4/4 18/3/4 24/2/4 23/1/4
f 20/4/5 22/3/5 24/2/5 18/1/5
f 21/4/6 19/3/6 17/2/6 23/1/6

v -123.51346588134766 -15.748215675354 -110.04496765136719
v -123.51346588134766 -15.60776615142822 -110.04496765136719
v -117.16507720947266 -15.748215675354 -110.04496765136719
v -117.16507720947266 -15.60776615142822 -110.04496765136719
v -117.16507720947266 -15.748215675354 -116.39335632324219
v -117.16507720947266 -15.60776615142822 -116.39335632324219
v -123.51346588134766 -15.748215675354 -116.39335632324219
v -123.51346588134766 -15.60776615142822 -116.39335632324219
# 8 vertices

# 0 normal

# 0 texture coordinate

o 立方体.3
usemtl default
f 27/4/1 28/3/1 26/2/1 25/1/1
f 29/4/2 30/3/2 28/2/2 27/1/2
f 31/4/3 32/3/3 30/2/3 29/1/3
f 25/4/4 26/3/4 32/2/4 31/1/4
f 28/4/5 30/3/5 32/2/5 26/1/5
f 29/4/6 27/3/6 25/2/6 31/1/6

